Coordinates
version=1
nRows=10
nColumns=40
inDegrees=yes

Units are S.I. units (second, meters, Newtons, ...)
If the header above contains a line with 'inDegrees', this indicates whether rotational values are in degrees (yes) or radians (no).

endheader
time	pelvis_tilt	pelvis_list	pelvis_rotation	pelvis_tx	pelvis_ty	pelvis_tz	hip_flexion_r	hip_adduction_r	hip_rotation_r	knee_angle_r	knee_angle_r_beta	ankle_angle_r	subtalar_angle_r	mtp_angle_r	hip_flexion_l	hip_adduction_l	hip_rotation_l	knee_angle_l	knee_angle_l_beta	ankle_angle_l	subtalar_angle_l	mtp_angle_l	lumbar_extension	lumbar_bending	lumbar_rotation	arm_flex_r	arm_add_r	arm_rot_r	elbow_flex_r	pro_sup_r	wrist_flex_r	wrist_dev_r	arm_flex_l	arm_add_l	arm_rot_l	elbow_flex_l	pro_sup_l	wrist_flex_l	wrist_dev_l
      4.68000000	     -2.53013544	     -0.37886051	     -0.70832045	     -0.23145260	      1.26829666	     -0.88458577	      2.80253011	     -6.74742426	    -23.75163085	      6.24403169	      0.10897891	    -39.50451276	      0.00000000	      0.00000000	      1.39698975	     -8.58090070	    -20.64051376	      4.82399871	      0.08419466	    -38.07659988	      0.00000000	      0.00000000	     -4.48631338	      1.28059455	      6.72665520	     18.09733262	    -40.70972666	     88.41807305	     73.69837679	     87.92895041	      0.00000000	      0.00000000	     26.30342818	    -40.48792663	     89.26584517	     79.96633023	     88.07594679	      0.00000000	      0.00000000
      4.68500000	     -2.23391430	     -0.35290029	     -0.93487553	     -0.23154013	      1.27686916	     -0.88399646	      2.71939957	     -6.67746167	    -23.55128398	      6.62667937	      0.11565737	    -39.50945696	      0.00000000	      0.00000000	      1.19736928	     -8.52489907	    -20.23669552	      5.50052970	      0.09600235	    -38.20945446	      0.00000000	      0.00000000	     -4.85451820	      1.17364301	      6.91597808	     18.17488932	    -40.54103103	     88.43591001	     73.41453751	     87.92935338	      0.00000000	      0.00000000	     26.43103180	    -40.61757389	     89.25167943	     79.94452858	     88.07537615	      0.00000000	      0.00000000
      4.69000000	     -1.91042919	     -0.34171903	     -1.05253609	     -0.23184800	      1.28511401	     -0.88347803	      2.59919343	     -6.60906063	    -23.27834919	      6.91647755	      0.12071531	    -39.48529372	      0.00000000	      0.00000000	      1.01758757	     -8.48670687	    -19.85090698	      6.10332655	      0.10652314	    -38.16646187	      0.00000000	      0.00000000	     -5.27548391	      1.06509135	      6.97699724	     18.26584193	    -40.36019834	     88.47539662	     73.17048807	     87.93574797	      0.00000000	      0.00000000	     26.58209827	    -40.78856131	     89.26582365	     79.94523914	     88.07472406	      0.00000000	      0.00000000
      4.69500000	     -1.60155664	     -0.27394363	     -1.12269719	     -0.23205816	      1.29298293	     -0.88306099	      2.39058533	     -6.56300852	    -23.02719700	      6.92750909	      0.12090784	    -39.46519000	      0.00000000	      0.00000000	      0.80543635	     -8.38134042	    -19.43640367	      6.54921945	      0.11430544	    -38.12379931	      0.00000000	      0.00000000	     -5.66694827	      0.91067019	      6.96216078	     18.39155780	    -40.16189247	     88.48907634	     72.94086605	     87.93468896	      0.00000000	      0.00000000	     26.70061038	    -40.95539041	     89.27620866	     80.00258145	     88.07713136	      0.00000000	      0.00000000
      4.70000000	     -1.19090079	     -0.18754701	     -1.14539473	     -0.23216417	      1.30078186	     -0.88262493	      1.88595700	     -6.45588423	    -22.41714783	      6.44454815	      0.11247858	    -39.44999448	      0.00000000	      0.00000000	      0.39132788	     -8.22360747	    -18.75359634	      6.74151572	      0.11766165	    -37.96757487	      0.00000000	      0.00000000	     -6.16093730	      0.71199840	      6.82815428	     18.56680569	    -39.91535224	     88.56013558	     72.69216254	     87.94460018	      0.00000000	      0.00000000	     26.77340657	    -41.26741192	     89.27221134	     80.24088951	     88.07559590	      0.00000000	      0.00000000
      4.70500000	     -0.86951365	     -0.08952116	     -0.97349690	     -0.23123686	      1.30803407	     -0.88226873	      1.31078624	     -6.33757054	    -22.02936643	      5.77872806	      0.10085783	    -39.43006192	      0.00000000	      0.00000000	      0.00724614	     -8.07884495	    -18.06843197	      6.77728317	      0.11828591	    -38.06928239	      0.00000000	      0.00000000	     -6.43135137	      0.52069276	      6.51477984	     18.54509311	    -39.66482575	     88.53723522	     72.51233856	     87.94035808	      0.00000000	      0.00000000	     26.69772340	    -41.58684057	     89.27290357	     80.46948082	     88.08025685	      0.00000000	      0.00000000
      4.71000000	     -0.42460761	     -0.09327559	     -0.86396952	     -0.23091152	      1.31527392	     -0.88195082	      0.64275765	     -6.11211840	    -21.52336971	      4.99873704	      0.08724442	    -39.41104325	      0.00000000	      0.00000000	     -0.60093746	     -8.00397911	    -17.10686103	      6.49866643	      0.11342313	    -38.05262512	      0.00000000	      0.00000000	     -6.90843008	      0.43911443	      6.25309022	     18.68159866	    -39.50515258	     88.58010074	     72.45129864	     87.94197913	      0.00000000	      0.00000000	     26.65053052	    -41.84123833	     89.26866720	     80.74353480	     88.06441872	      0.00000000	      0.00000000
      4.71500000	     -0.03179855	      0.04584356	     -0.70618083	     -0.23045145	      1.32227561	     -0.88191064	      0.03625664	     -6.07129086	    -21.07620504	      4.24659177	      0.07411701	    -39.38218061	      0.00000000	      0.00000000	     -1.16440300	     -7.78191599	    -16.29831611	      6.16716374	      0.10763731	    -38.05767620	      0.00000000	      0.00000000	     -7.30783913	      0.24254365	      5.94742656	     18.77067874	    -39.39409809	     88.54934105	     72.43591356	     87.92996016	      0.00000000	      0.00000000	     26.57567999	    -42.09182077	     89.26254114	     81.00953134	     88.05789369	      0.00000000	      0.00000000
      4.72000000	      0.31261708	      0.17289235	     -0.47287920	     -0.22982856	      1.32892302	     -0.88197874	     -0.56291639	     -6.01632069	    -20.73900343	      3.42796683	      0.05982931	    -39.33929116	      0.00000000	      0.00000000	     -1.69247478	     -7.58499062	    -15.48884457	      5.73372120	      0.10007231	    -38.01550389	      0.00000000	      0.00000000	     -7.61745526	      0.06001501	      5.55505633	     18.84648871	    -39.30968317	     88.50694350	     72.46253332	     87.91965529	      0.00000000	      0.00000000	     26.46426977	    -42.32989978	     89.25650632	     81.32044539	     88.05868298	      0.00000000	      0.00000000
      4.72500000	      0.62626836	      0.25256637	     -0.23721418	     -0.22912554	      1.33539045	     -0.88209052	     -1.14477833	     -5.91180531	    -20.46600050	      2.56235603	      0.04472155	    -39.29307900	      0.00000000	      0.00000000	     -2.21204391	     -7.45132234	    -14.79034564	      5.24430733	      0.09153043	    -37.91112141	      0.00000000	      0.00000000	     -7.88549484	     -0.05713416	      5.18869844	     18.85559890	    -39.26656615	     88.45850497	     72.50771303	     87.90450586	      0.00000000	      0.00000000	     26.32679745	    -42.53647512	     89.22494201	     81.61743690	     88.04280866	      0.00000000	      0.00000000
